<?xml version="1.0" encoding="UTF-8" standalone="no"?>
<!-- Created with Inkscape (http://www.inkscape.org/) -->

<svg
   width="355.57883mm"
   height="355.57883mm"
   viewBox="0 0 355.57883 355.57883"
   version="1.1"
   id="svg1456"
   xmlns="http://www.w3.org/2000/svg"
   xmlns:svg="http://www.w3.org/2000/svg">
  <defs
     id="defs1453" />
  <g
     id="layer1"
     transform="translate(169.26475,145.73659)">
    <path
       d="m 186.28589,119.60874 c 0,1.94733 -0.06,6.16655 -0.17639,9.42975 -0.28575,7.97983 -0.91723,18.27741 -1.87325,22.96936 -1.43934,7.05203 -3.61245,13.70542 -6.44173,19.24403 -3.34786,6.55461 -7.61647,12.4213 -12.69294,17.48719 -5.06589,5.05884 -10.92906,9.31334 -17.47309,12.64709 -5.56683,2.83633 -12.26255,5.00944 -19.35339,6.44172 -4.64608,0.93486 -14.86605,1.55575 -22.7965,1.83797 -3.26319,0.11995 -7.48947,0.17639 -9.42622,0.17639 l -175.08468,-0.0282 c -1.947334,0 -6.169026,-0.06 -9.427987,-0.17639 -7.979834,-0.28575 -18.279883,-0.91722 -22.972533,-1.87678 -7.05062,-1.4358 -13.70577,-3.60539 -19.24474,-6.43819 -6.55144,-3.34786 -12.42201,-7.62 -17.48684,-12.69295 -5.05778,-5.06236 -9.3091,-10.92905 -12.64426,-17.46955 -2.83916,-5.57037 -5.00945,-12.26609 -6.44349,-19.35692 -0.93663,-4.64609 -1.55716,-14.86606 -1.83868,-22.7965 -0.11606,-3.2632 -0.17392,-7.48595 -0.17392,-9.42623 l 0.0275,-175.083618 c 0,-1.947334 0.0582,-6.170084 0.17427,-9.429751 0.28681,-7.979834 0.91934,-18.277418 1.87678,-22.969362 1.43616,-7.052029 3.60609,-13.705419 6.43784,-19.244029 3.34786,-6.55461 7.62035,-12.42483 12.69577,-17.49072 5.06165,-5.05531 10.92729,-9.30981 17.4685,-12.64709 5.56895,-2.83633 12.26785,-5.00944 19.35868,-6.43819 4.64467,-0.93839 14.863586,-1.55928 22.795442,-1.8415 3.264253,-0.11642 7.485592,-0.17286 9.425164,-0.17286 l 175.081859,0.0247 c 1.947333,0 6.170085,0.0635 9.433275,0.17992 7.97984,0.28575 18.27742,0.91722 22.96937,1.87678 7.0485,1.4358 13.70541,3.60538 19.24402,6.43466 6.55462,3.34786 12.42484,7.62353 17.49073,12.69295 5.05178,5.06589 9.30628,10.92905 12.64355,17.47308 2.83987,5.57036 5.00945,12.266086 6.44173,19.35692 0.93839,4.642556 1.55927,14.866056 1.83797,22.792973 0.11642,3.266723 0.17639,7.489473 0.17639,9.429751 l -0.0282,175.083626"
       style="fill:#12b6e9;fill-opacity:1;fill-rule:evenodd;stroke:none;stroke-width:0.0352778"
       id="path14" />
    <path
       d="m 128.25394,-22.873631 c -0.53622,11.662481 -4.87539,25.480082 -13.02103,41.449627 -8.14564,15.967076 -20.10128,34.089978 -35.859864,54.362354 -16.291279,21.16949 -31.33196,37.05014 -45.1164,47.637 -13.784087,10.58686 -26.3154602,15.88205 -37.5874165,15.88205 -18.8591485,0 -29.8728715,-23.77722 -35.4552275,-38.682082 -3.22333,-11.821937 -6.44772,-23.64599 -9.668228,-35.46581 -3.22192,-11.819115 -6.44772,-23.643521 -9.672109,-35.464753 -3.585986,-12.890148 -7.303559,-22.5622567 -11.150601,-29.0103293 -3.847394,-6.4448977 -7.828139,-9.6738727 -11.94047,-9.6738727 -0.897114,0 -2.918178,0.944386 -6.050139,2.8261028 -3.135137,1.8785418 -7.390695,4.7028808 -12.761385,8.45890608 l -5.63774,-7.26087268 -5.63457,-7.2605202 c 5.91326,-5.194653 11.788777,-10.393186 17.618783,-15.588192 5.826831,-5.196417 11.616268,-10.396362 17.354551,-15.599835 8.175626,-7.062611 24.487719,-20.510501 35.518375,-21.519445 23.405749,-2.250723 31.3884046,18.937112 34.4374631,38.242171 C -4.04444,-14.81795 -2.0720593,-2.8792438 -0.45845362,6.2728706 1.1569159,15.427455 2.4128049,21.796858 3.3169744,25.380022 c 2.6902835,12.214931 5.5160337,21.37516 8.4765446,27.477863 2.958395,6.104114 6.052962,9.155642 9.281937,9.155642 2.504017,0 5.641975,-1.983317 9.410348,-5.943953 3.76555,-3.960989 8.164689,-9.905295 13.188951,-17.833976 5.015089,-7.919509 8.866364,-14.893221 11.556648,-20.923957 2.685697,-6.029678 4.213225,-11.1149704 4.576586,-15.2558762 0.719667,-6.8371865 -0.268111,-11.9708091 -2.955925,-15.3924008 -2.687461,-3.420886 -7.081309,-5.135034 -13.177309,-5.135034 -2.868437,0 -5.78344,0.331259 -8.741834,0.98672 -2.95522,0.65405 -5.956301,1.63583 -9.00042,2.942872 5.890684,-19.286362 14.462831,-33.619724 25.712563,-42.985975 33.093732,-27.569585 78.961906,-17.106195 76.608876,34.654422"
       style="fill:#ffffff;fill-opacity:1;fill-rule:evenodd;stroke:none;stroke-width:0.0352778"
       id="path16" />
  </g>
</svg>
