<svg xmlns="http://www.w3.org/2000/svg" viewBox="0 0 1000 1000"><path d="M518.274 656.894c4.68-1.157 9.35-3.14 13.496-5.732 3.048-1.906 16.195-16.029 106.396-114.297 56.604-61.667 103.91-113.611 105.125-115.431 2.729-4.088 5.72-11.04 6.89-16.01 1.338-5.683 1.164-16.829-.349-22.337-1.546-5.631-3.694-10.458-6.496-14.598-11.696-17.284-32.074-23.66-50.56-15.82-8.475 3.593-5.26.264-99.115 102.662-47.914 52.276-87.325 95.047-87.58 95.048-.256 0-40.023-41.907-88.372-93.128-48.35-51.22-89.183-94.149-90.74-95.396-7.881-6.31-16.304-9.315-25.89-9.239-16.586.133-31.824 10.747-38.488 26.81-2.834 6.83-3.596 11.02-3.501 19.234.076 6.545.261 8.083 1.476 12.264 1.534 5.277 4.167 10.909 6.887 14.726 2.75 3.86 207.472 220.493 211.155 223.44 3.92 3.135 8.938 5.74 14.024 7.278 5.037 1.523 20.34 1.837 25.642.526z" fill="#3a81b4"/></svg>