<svg xmlns="http://www.w3.org/2000/svg" viewBox="0 0 1000 1000"><path d="M351.724 490.344c1.157-4.68 3.14-9.349 5.733-13.495 1.905-3.049 16.028-16.196 114.296-106.396 61.668-56.605 113.612-103.911 115.432-105.126 4.088-2.728 11.039-5.72 16.01-6.89 5.683-1.338 16.828-1.164 22.336.35 5.632 1.546 10.458 3.694 14.599 6.495 17.284 11.696 23.66 32.074 15.82 50.561-3.594 8.474-.264 5.26-102.663 99.115-52.275 47.914-95.047 87.325-95.047 87.58 0 .255 41.907 40.022 93.127 88.372s94.15 89.182 95.396 90.74c6.31 7.88 9.316 16.303 9.24 25.89-.133 16.586-10.748 31.824-26.811 38.488-6.829 2.833-11.02 3.596-19.234 3.5-6.545-.075-8.083-.26-12.264-1.476-5.277-1.534-10.908-4.167-14.726-6.886-3.86-2.75-220.493-207.473-223.44-211.156-3.135-3.919-5.74-8.938-7.278-14.024-1.523-5.037-1.837-20.34-.526-25.642z" fill="#3a81b4"/></svg>