<?xml version="1.0" encoding="UTF-8" standalone="no"?>
<!-- Created with Inkscape (http://www.inkscape.org/) -->

<svg
   version="1.1"
   id="svg3534"
   width="4399.9976"
   height="662.89929"
   viewBox="0 0 4399.9976 662.89928"
   xmlns="http://www.w3.org/2000/svg"
   xmlns:svg="http://www.w3.org/2000/svg">
  <defs
     id="defs3538">
    <clipPath
       clipPathUnits="userSpaceOnUse"
       id="clipPath3554">
      <path
         d="m 34338.8,12274.5 471.7,-1005 c 53.3,-113.5 159.6,-192.9 283.6,-211.9 l 1084.8,-165.7 c 302.5,-46.3 426,-415.2 212.3,-634.2 l -808.4,-828.6 c -83.3,-85.4 -121.1,-205.3 -101.9,-323 l 187.5,-1149.8 c 50.5,-309.7 -278.3,-541.4 -552.9,-389.5 l -935.1,516.9 c -113.2,62.5 -250.6,62.5 -363.8,0 l -935.1,-516.9 c -274.7,-151.9 -603.5,79.8 -552.9,389.5 l 187.5,1149.8 c 19.2,117.7 -18.6,237.6 -102,323 l -808.4,828.6 c -213.6,219 -90.1,587.9 212.4,634.2 l 1084.8,165.7 c 123.9,19 230.3,98.4 283.5,211.9 l 471.8,1005 c 135.3,288.3 545.3,288.3 680.6,0 z"
         id="path3552" />
    </clipPath>
    <linearGradient
       x1="0"
       y1="0"
       x2="1"
       y2="0"
       gradientUnits="userSpaceOnUse"
       gradientTransform="matrix(-2528,4378.62,4378.62,2528,35388.5,7514.2)"
       spreadMethod="pad"
       id="linearGradient3568">
      <stop
         style="stop-opacity:1;stop-color:#ff7b00"
         offset="0"
         id="stop3556" />
      <stop
         style="stop-opacity:1;stop-color:#ff9500"
         offset="0.2"
         id="stop3558" />
      <stop
         style="stop-opacity:1;stop-color:#ffaa00"
         offset="0.4"
         id="stop3560" />
      <stop
         style="stop-opacity:1;stop-color:#ffb700"
         offset="0.6"
         id="stop3562" />
      <stop
         style="stop-opacity:1;stop-color:#ffd000"
         offset="0.8"
         id="stop3564" />
      <stop
         style="stop-opacity:1;stop-color:#ffea00"
         offset="1"
         id="stop3566" />
    </linearGradient>
    <clipPath
       clipPathUnits="userSpaceOnUse"
       id="clipPath3578">
      <path
         d="m 27338.8,12274.5 471.7,-1005 c 53.3,-113.5 159.6,-192.9 283.6,-211.9 l 1084.8,-165.7 c 302.5,-46.3 426,-415.2 212.3,-634.2 l -808.4,-828.6 c -83.3,-85.4 -121.1,-205.3 -101.9,-323 l 187.5,-1149.8 c 50.5,-309.7 -278.3,-541.4 -552.9,-389.5 l -935.1,516.9 c -113.2,62.5 -250.6,62.5 -363.8,0 l -935.1,-516.9 c -274.7,-151.9 -603.5,79.8 -552.9,389.5 l 187.5,1149.8 c 19.2,117.7 -18.6,237.6 -102,323 l -808.4,828.6 c -213.6,219 -90.1,587.9 212.4,634.2 l 1084.8,165.7 c 123.9,19 230.3,98.4 283.5,211.9 l 471.8,1005 c 135.3,288.3 545.3,288.3 680.6,0 z"
         id="path3576" />
    </clipPath>
    <linearGradient
       x1="0"
       y1="0"
       x2="1"
       y2="0"
       gradientUnits="userSpaceOnUse"
       gradientTransform="matrix(-2528,4378.62,4378.62,2528,28388.5,7514.2)"
       spreadMethod="pad"
       id="linearGradient3592">
      <stop
         style="stop-opacity:1;stop-color:#ff7b00"
         offset="0"
         id="stop3580" />
      <stop
         style="stop-opacity:1;stop-color:#ff9500"
         offset="0.2"
         id="stop3582" />
      <stop
         style="stop-opacity:1;stop-color:#ffaa00"
         offset="0.4"
         id="stop3584" />
      <stop
         style="stop-opacity:1;stop-color:#ffb700"
         offset="0.6"
         id="stop3586" />
      <stop
         style="stop-opacity:1;stop-color:#ffd000"
         offset="0.8"
         id="stop3588" />
      <stop
         style="stop-opacity:1;stop-color:#ffea00"
         offset="1"
         id="stop3590" />
    </linearGradient>
    <clipPath
       clipPathUnits="userSpaceOnUse"
       id="clipPath3602">
      <path
         d="m 20338.8,12274.5 471.7,-1005 c 53.3,-113.5 159.6,-192.9 283.6,-211.9 l 1084.8,-165.7 c 302.5,-46.3 426,-415.2 212.3,-634.2 l -808.4,-828.6 c -83.3,-85.4 -121.1,-205.3 -101.9,-323 l 187.5,-1149.8 c 50.5,-309.7 -278.3,-541.4 -552.9,-389.5 l -935.1,516.9 c -113.2,62.5 -250.6,62.5 -363.8,0 l -935.1,-516.9 c -274.7,-151.9 -603.5,79.8 -553,389.5 l 187.6,1149.8 c 19.2,117.7 -18.6,237.6 -102,323 l -808.4,828.6 c -213.6,219 -90.1,587.9 212.4,634.2 l 1084.8,165.7 c 123.9,19 230.3,98.4 283.5,211.9 l 471.8,1005 c 135.3,288.3 545.3,288.3 680.6,0 z"
         id="path3600" />
    </clipPath>
    <linearGradient
       x1="0"
       y1="0"
       x2="1"
       y2="0"
       gradientUnits="userSpaceOnUse"
       gradientTransform="matrix(-2528,4378.62,4378.62,2528,21388.5,7514.2)"
       spreadMethod="pad"
       id="linearGradient3616">
      <stop
         style="stop-opacity:1;stop-color:#ff7b00"
         offset="0"
         id="stop3604" />
      <stop
         style="stop-opacity:1;stop-color:#ff9500"
         offset="0.2"
         id="stop3606" />
      <stop
         style="stop-opacity:1;stop-color:#ffaa00"
         offset="0.4"
         id="stop3608" />
      <stop
         style="stop-opacity:1;stop-color:#ffb700"
         offset="0.6"
         id="stop3610" />
      <stop
         style="stop-opacity:1;stop-color:#ffd000"
         offset="0.8"
         id="stop3612" />
      <stop
         style="stop-opacity:1;stop-color:#ffea00"
         offset="1"
         id="stop3614" />
    </linearGradient>
    <clipPath
       clipPathUnits="userSpaceOnUse"
       id="clipPath3626">
      <path
         d="m 13338.8,12274.5 471.7,-1005 c 53.3,-113.5 159.6,-192.9 283.6,-211.9 l 1084.8,-165.7 c 302.5,-46.3 426,-415.2 212.3,-634.2 l -808.4,-828.6 c -83.3,-85.4 -121.1,-205.3 -101.9,-323 l 187.5,-1149.8 c 50.5,-309.7 -278.2,-541.4 -552.9,-389.5 l -935.1,516.9 c -113.2,62.5 -250.6,62.5 -363.8,0 l -935.1,-516.9 c -274.7,-151.9 -603.5,79.8 -553,389.5 l 187.6,1149.8 c 19.2,117.7 -18.6,237.6 -102,323 l -808.4,828.6 c -213.6,219 -90.1,587.9 212.4,634.2 l 1084.8,165.7 c 123.9,19 230.3,98.4 283.5,211.9 l 471.8,1005 c 135.3,288.3 545.3,288.3 680.6,0 z"
         id="path3624" />
    </clipPath>
    <linearGradient
       x1="0"
       y1="0"
       x2="1"
       y2="0"
       gradientUnits="userSpaceOnUse"
       gradientTransform="matrix(-2528,4378.62,4378.62,2528,14388.5,7514.2)"
       spreadMethod="pad"
       id="linearGradient3640">
      <stop
         style="stop-opacity:1;stop-color:#ff7b00"
         offset="0"
         id="stop3628" />
      <stop
         style="stop-opacity:1;stop-color:#ff9500"
         offset="0.2"
         id="stop3630" />
      <stop
         style="stop-opacity:1;stop-color:#ffaa00"
         offset="0.4"
         id="stop3632" />
      <stop
         style="stop-opacity:1;stop-color:#ffb700"
         offset="0.6"
         id="stop3634" />
      <stop
         style="stop-opacity:1;stop-color:#ffd000"
         offset="0.8"
         id="stop3636" />
      <stop
         style="stop-opacity:1;stop-color:#ffea00"
         offset="1"
         id="stop3638" />
    </linearGradient>
    <clipPath
       clipPathUnits="userSpaceOnUse"
       id="clipPath3650">
      <path
         d="m 6338.81,12274.5 471.72,-1005 c 53.27,-113.5 159.61,-192.9 283.55,-211.9 l 1084.84,-165.7 c 302.48,-46.3 426,-415.2 212.3,-634.2 l -808.39,-828.6 c -83.33,-85.4 -121.17,-205.3 -101.96,-323 l 187.55,-1149.8 c 50.52,-309.7 -278.27,-541.4 -552.92,-389.5 l -935.13,516.9 c -113.19,62.5 -250.58,62.5 -363.76,0 l -935.14,-516.9 c -274.65,-151.9 -603.44,79.8 -552.92,389.5 l 187.55,1149.8 c 19.21,117.7 -18.63,237.6 -101.96,323 l -808.39,828.6 c -213.69,219 -90.18,587.9 212.3,634.2 l 1084.84,165.7 c 123.94,19 230.27,98.4 283.55,211.9 l 471.72,1005 c 135.31,288.3 545.34,288.3 680.65,0 z"
         id="path3648" />
    </clipPath>
    <linearGradient
       x1="0"
       y1="0"
       x2="1"
       y2="0"
       gradientUnits="userSpaceOnUse"
       gradientTransform="matrix(-2528,4378.62,4378.62,2528,7388.48,7514.2)"
       spreadMethod="pad"
       id="linearGradient3664">
      <stop
         style="stop-opacity:1;stop-color:#ff7b00"
         offset="0"
         id="stop3652" />
      <stop
         style="stop-opacity:1;stop-color:#ff9500"
         offset="0.2"
         id="stop3654" />
      <stop
         style="stop-opacity:1;stop-color:#ffaa00"
         offset="0.4"
         id="stop3656" />
      <stop
         style="stop-opacity:1;stop-color:#ffb700"
         offset="0.6"
         id="stop3658" />
      <stop
         style="stop-opacity:1;stop-color:#ffd000"
         offset="0.8"
         id="stop3660" />
      <stop
         style="stop-opacity:1;stop-color:#ffea00"
         offset="1"
         id="stop3662" />
    </linearGradient>
    <clipPath
       clipPathUnits="userSpaceOnUse"
       id="clipPath3554-3">
      <path
         d="m 34338.8,12274.5 471.7,-1005 c 53.3,-113.5 159.6,-192.9 283.6,-211.9 l 1084.8,-165.7 c 302.5,-46.3 426,-415.2 212.3,-634.2 l -808.4,-828.6 c -83.3,-85.4 -121.1,-205.3 -101.9,-323 l 187.5,-1149.8 c 50.5,-309.7 -278.3,-541.4 -552.9,-389.5 l -935.1,516.9 c -113.2,62.5 -250.6,62.5 -363.8,0 l -935.1,-516.9 c -274.7,-151.9 -603.5,79.8 -552.9,389.5 l 187.5,1149.8 c 19.2,117.7 -18.6,237.6 -102,323 l -808.4,828.6 c -213.6,219 -90.1,587.9 212.4,634.2 l 1084.8,165.7 c 123.9,19 230.3,98.4 283.5,211.9 l 471.8,1005 c 135.3,288.3 545.3,288.3 680.6,0 z"
         id="path3552-6" />
    </clipPath>
    <clipPath
       clipPathUnits="userSpaceOnUse"
       id="clipPath3650-9">
      <path
         d="m 6338.81,12274.5 471.72,-1005 c 53.27,-113.5 159.61,-192.9 283.55,-211.9 l 1084.84,-165.7 c 302.48,-46.3 426,-415.2 212.3,-634.2 l -808.39,-828.6 c -83.33,-85.4 -121.17,-205.3 -101.96,-323 l 187.55,-1149.8 c 50.52,-309.7 -278.27,-541.4 -552.92,-389.5 l -935.13,516.9 c -113.19,62.5 -250.58,62.5 -363.76,0 l -935.14,-516.9 c -274.65,-151.9 -603.44,79.8 -552.92,389.5 l 187.55,1149.8 c 19.21,117.7 -18.63,237.6 -101.96,323 l -808.39,828.6 c -213.69,219 -90.18,587.9 212.3,634.2 l 1084.84,165.7 c 123.94,19 230.27,98.4 283.55,211.9 l 471.72,1005 c 135.31,288.3 545.34,288.3 680.65,0 z"
         id="path3648-1" />
    </clipPath>
    <clipPath
       clipPathUnits="userSpaceOnUse"
       id="clipPath3626-0">
      <path
         d="m 13338.8,12274.5 471.7,-1005 c 53.3,-113.5 159.6,-192.9 283.6,-211.9 l 1084.8,-165.7 c 302.5,-46.3 426,-415.2 212.3,-634.2 l -808.4,-828.6 c -83.3,-85.4 -121.1,-205.3 -101.9,-323 l 187.5,-1149.8 c 50.5,-309.7 -278.2,-541.4 -552.9,-389.5 l -935.1,516.9 c -113.2,62.5 -250.6,62.5 -363.8,0 l -935.1,-516.9 c -274.7,-151.9 -603.5,79.8 -553,389.5 l 187.6,1149.8 c 19.2,117.7 -18.6,237.6 -102,323 l -808.4,828.6 c -213.6,219 -90.1,587.9 212.4,634.2 l 1084.8,165.7 c 123.9,19 230.3,98.4 283.5,211.9 l 471.8,1005 c 135.3,288.3 545.3,288.3 680.6,0 z"
         id="path3624-6" />
    </clipPath>
    <clipPath
       clipPathUnits="userSpaceOnUse"
       id="clipPath3602-2">
      <path
         d="m 20338.8,12274.5 471.7,-1005 c 53.3,-113.5 159.6,-192.9 283.6,-211.9 l 1084.8,-165.7 c 302.5,-46.3 426,-415.2 212.3,-634.2 l -808.4,-828.6 c -83.3,-85.4 -121.1,-205.3 -101.9,-323 l 187.5,-1149.8 c 50.5,-309.7 -278.3,-541.4 -552.9,-389.5 l -935.1,516.9 c -113.2,62.5 -250.6,62.5 -363.8,0 l -935.1,-516.9 c -274.7,-151.9 -603.5,79.8 -553,389.5 l 187.6,1149.8 c 19.2,117.7 -18.6,237.6 -102,323 l -808.4,828.6 c -213.6,219 -90.1,587.9 212.4,634.2 l 1084.8,165.7 c 123.9,19 230.3,98.4 283.5,211.9 l 471.8,1005 c 135.3,288.3 545.3,288.3 680.6,0 z"
         id="path3600-0" />
    </clipPath>
    <clipPath
       clipPathUnits="userSpaceOnUse"
       id="clipPath3578-2">
      <path
         d="m 27338.8,12274.5 471.7,-1005 c 53.3,-113.5 159.6,-192.9 283.6,-211.9 l 1084.8,-165.7 c 302.5,-46.3 426,-415.2 212.3,-634.2 l -808.4,-828.6 c -83.3,-85.4 -121.1,-205.3 -101.9,-323 l 187.5,-1149.8 c 50.5,-309.7 -278.3,-541.4 -552.9,-389.5 l -935.1,516.9 c -113.2,62.5 -250.6,62.5 -363.8,0 l -935.1,-516.9 c -274.7,-151.9 -603.5,79.8 -552.9,389.5 l 187.5,1149.8 c 19.2,117.7 -18.6,237.6 -102,323 l -808.4,828.6 c -213.6,219 -90.1,587.9 212.4,634.2 l 1084.8,165.7 c 123.9,19 230.3,98.4 283.5,211.9 l 471.8,1005 c 135.3,288.3 545.3,288.3 680.6,0 z"
         id="path3576-8" />
    </clipPath>
  </defs>
  <g
     id="g3542"
     transform="matrix(1.3333333,0,0,-1.3333333,-194.14424,1402.0382)">
    <g
       id="g3544"
       transform="matrix(0.1,0,0,0.1,-4.2183862,-2.2072598)">
      <g
         id="g3548"
         transform="translate(-2000.2233,-1953.3657)"
         style="fill:#cccccc">
        <g
           id="g3550"
           clip-path="url(#clipPath3554-3)"
           style="fill:#cccccc">
          <path
             d="m 34338.8,12274.5 471.7,-1005 c 53.3,-113.5 159.6,-192.9 283.6,-211.9 l 1084.8,-165.7 c 302.5,-46.3 426,-415.2 212.3,-634.2 l -808.4,-828.6 c -83.3,-85.4 -121.1,-205.3 -101.9,-323 l 187.5,-1149.8 c 50.5,-309.7 -278.3,-541.4 -552.9,-389.5 l -935.1,516.9 c -113.2,62.5 -250.6,62.5 -363.8,0 l -935.1,-516.9 c -274.7,-151.9 -603.5,79.8 -552.9,389.5 l 187.5,1149.8 c 19.2,117.7 -18.6,237.6 -102,323 l -808.4,828.6 c -213.6,219 -90.1,587.9 212.4,634.2 l 1084.8,165.7 c 123.9,19 230.3,98.4 283.5,211.9 l 471.8,1005 c 135.3,288.3 545.3,288.3 680.6,0"
             style="fill:#cccccc;fill-opacity:1;fill-rule:nonzero;stroke:none"
             id="path3570" />
        </g>
      </g>
      <g
         id="g3572"
         transform="translate(-2000.2233,-1953.3657)"
         style="fill:#cccccc">
        <g
           id="g3574"
           clip-path="url(#clipPath3578-2)"
           style="fill:#cccccc">
          <path
             d="m 27338.8,12274.5 471.7,-1005 c 53.3,-113.5 159.6,-192.9 283.6,-211.9 l 1084.8,-165.7 c 302.5,-46.3 426,-415.2 212.3,-634.2 l -808.4,-828.6 c -83.3,-85.4 -121.1,-205.3 -101.9,-323 l 187.5,-1149.8 c 50.5,-309.7 -278.3,-541.4 -552.9,-389.5 l -935.1,516.9 c -113.2,62.5 -250.6,62.5 -363.8,0 l -935.1,-516.9 c -274.7,-151.9 -603.5,79.8 -552.9,389.5 l 187.5,1149.8 c 19.2,117.7 -18.6,237.6 -102,323 l -808.4,828.6 c -213.6,219 -90.1,587.9 212.4,634.2 l 1084.8,165.7 c 123.9,19 230.3,98.4 283.5,211.9 l 471.8,1005 c 135.3,288.3 545.3,288.3 680.6,0"
             style="fill:#cccccc;fill-opacity:1;fill-rule:nonzero;stroke:none"
             id="path3594" />
        </g>
      </g>
      <g
         id="g3596"
         transform="translate(-2000.2233,-1953.3657)"
         style="fill:#cccccc">
        <g
           id="g3598"
           clip-path="url(#clipPath3602-2)"
           style="fill:#cccccc">
          <path
             d="m 20338.8,12274.5 471.7,-1005 c 53.3,-113.5 159.6,-192.9 283.6,-211.9 l 1084.8,-165.7 c 302.5,-46.3 426,-415.2 212.3,-634.2 l -808.4,-828.6 c -83.3,-85.4 -121.1,-205.3 -101.9,-323 l 187.5,-1149.8 c 50.5,-309.7 -278.3,-541.4 -552.9,-389.5 l -935.1,516.9 c -113.2,62.5 -250.6,62.5 -363.8,0 l -935.1,-516.9 c -274.7,-151.9 -603.5,79.8 -553,389.5 l 187.6,1149.8 c 19.2,117.7 -18.6,237.6 -102,323 l -808.4,828.6 c -213.6,219 -90.1,587.9 212.4,634.2 l 1084.8,165.7 c 123.9,19 230.3,98.4 283.5,211.9 l 471.8,1005 c 135.3,288.3 545.3,288.3 680.6,0"
             style="fill:#cccccc;fill-opacity:1;fill-rule:nonzero;stroke:none"
             id="path3618" />
        </g>
      </g>
      <g
         id="g3620"
         transform="translate(-2000.2233,-1953.3657)"
         style="fill:#cccccc">
        <g
           id="g3622"
           clip-path="url(#clipPath3626-0)"
           style="fill:#cccccc">
          <path
             d="m 13338.8,12274.5 471.7,-1005 c 53.3,-113.5 159.6,-192.9 283.6,-211.9 l 1084.8,-165.7 c 302.5,-46.3 426,-415.2 212.3,-634.2 l -808.4,-828.6 c -83.3,-85.4 -121.1,-205.3 -101.9,-323 l 187.5,-1149.8 c 50.5,-309.7 -278.2,-541.4 -552.9,-389.5 l -935.1,516.9 c -113.2,62.5 -250.6,62.5 -363.8,0 l -935.1,-516.9 c -274.7,-151.9 -603.5,79.8 -553,389.5 l 187.6,1149.8 c 19.2,117.7 -18.6,237.6 -102,323 l -808.4,828.6 c -213.6,219 -90.1,587.9 212.4,634.2 l 1084.8,165.7 c 123.9,19 230.3,98.4 283.5,211.9 l 471.8,1005 c 135.3,288.3 545.3,288.3 680.6,0"
             style="fill:#cccccc;fill-opacity:1;fill-rule:nonzero;stroke:none"
             id="path3642" />
        </g>
      </g>
      <g
         id="g3644"
         transform="translate(-2000.2233,-1953.3657)">
        <g
           id="g3646"
           clip-path="url(#clipPath3650-9)">
          <path
             d="m 6338.81,12274.5 471.72,-1005 c 53.27,-113.5 159.61,-192.9 283.55,-211.9 l 1084.84,-165.7 c 302.48,-46.3 426,-415.2 212.3,-634.2 l -808.39,-828.6 c -83.33,-85.4 -121.17,-205.3 -101.96,-323 l 187.55,-1149.8 c 50.52,-309.7 -278.27,-541.4 -552.92,-389.5 l -935.13,516.9 c -113.19,62.5 -250.58,62.5 -363.76,0 l -935.14,-516.9 c -274.65,-151.9 -603.44,79.8 -552.92,389.5 l 187.55,1149.8 c 19.21,117.7 -18.63,237.6 -101.96,323 l -808.39,828.6 c -213.69,219 -90.18,587.9 212.3,634.2 l 1084.84,165.7 c 123.94,19 230.27,98.4 283.55,211.9 l 471.72,1005 c 135.31,288.3 545.34,288.3 680.65,0"
             style="fill:url(#linearGradient3664);fill-opacity:1;fill-rule:nonzero;stroke:none"
             id="path3666" />
        </g>
      </g>
    </g>
  </g>
</svg>
